<svg width="50" height="50" viewBox="0 0 50 50" fill="none" xmlns="http://www.w3.org/2000/svg">
<path d="M16.54 5.11027C15.9541 5.69629 15.625 6.49101 15.625 7.31965C15.625 8.14828 15.9541 8.943 16.54 9.52902L32.0087 24.9978L16.54 40.4665C15.9707 41.0559 15.6557 41.8453 15.6629 42.6647C15.67 43.484 15.9986 44.2678 16.578 44.8472C17.1574 45.4266 17.9412 45.7553 18.7606 45.7624C19.5799 45.7695 20.3693 45.4545 20.9587 44.8853L38.6368 27.2071C39.2227 26.6211 39.5518 25.8264 39.5518 24.9978C39.5518 24.1691 39.2227 23.3744 38.6368 22.7884L20.9587 5.11027C20.3727 4.52442 19.578 4.19531 18.7493 4.19531C17.9207 4.19531 17.126 4.52442 16.54 5.11027Z" fill="#004897"/>
</svg>
