<svg width="50" height="50" viewBox="0 0 50 50" fill="none" xmlns="http://www.w3.org/2000/svg">
<path d="M33.4591 5.11027C34.0449 5.69629 34.3741 6.49101 34.3741 7.31965C34.3741 8.14828 34.0449 8.943 33.4591 9.52902L17.9903 24.9978L33.4591 40.4665C34.0283 41.0559 34.3433 41.8453 34.3362 42.6647C34.3291 43.484 34.0004 44.2678 33.421 44.8472C32.8416 45.4266 32.0578 45.7553 31.2385 45.7624C30.4191 45.7695 29.6297 45.4545 29.0403 44.8853L11.3622 27.2071C10.7764 26.6211 10.4473 25.8264 10.4473 24.9978C10.4473 24.1691 10.7764 23.3744 11.3622 22.7884L29.0403 5.11027C29.6264 4.52442 30.4211 4.19531 31.2497 4.19531C32.0784 4.19531 32.8731 4.52442 33.4591 5.11027Z" fill="#004897"/>
</svg>