<svg width="60" height="60" viewBox="0 0 60 60" fill="none" xmlns="http://www.w3.org/2000/svg">
<mask id="mask0_2611_4834" style="mask-type:alpha" maskUnits="userSpaceOnUse" x="0" y="0" width="60" height="60">
<rect width="60" height="60" fill="#D9D9D9"/>
</mask>
<g mask="url(#mask0_2611_4834)">
<path d="M7.5 52.5C6.125 52.5 4.94792 52.0104 3.96875 51.0312C2.98958 50.0521 2.5 48.875 2.5 47.5V17.5C2.5 16.125 2.98958 14.9479 3.96875 13.9688C4.94792 12.9896 6.125 12.5 7.5 12.5H15.375L20 7.5H35V12.5H22.1875L17.625 17.5H7.5V47.5H47.5V25H52.5V47.5C52.5 48.875 52.0104 50.0521 51.0312 51.0312C50.0521 52.0104 48.875 52.5 47.5 52.5H7.5ZM47.5 17.5V12.5H42.5V7.5H47.5V2.5H52.5V7.5H57.5V12.5H52.5V17.5H47.5ZM27.5 43.75C30.625 43.75 33.2812 42.6562 35.4688 40.4688C37.6562 38.2812 38.75 35.625 38.75 32.5C38.75 29.375 37.6562 26.7188 35.4688 24.5312C33.2812 22.3438 30.625 21.25 27.5 21.25C24.375 21.25 21.7188 22.3438 19.5312 24.5312C17.3438 26.7188 16.25 29.375 16.25 32.5C16.25 35.625 17.3438 38.2812 19.5312 40.4688C21.7188 42.6562 24.375 43.75 27.5 43.75ZM27.5 38.75C25.75 38.75 24.2708 38.1458 23.0625 36.9375C21.8542 35.7292 21.25 34.25 21.25 32.5C21.25 30.75 21.8542 29.2708 23.0625 28.0625C24.2708 26.8542 25.75 26.25 27.5 26.25C29.25 26.25 30.7292 26.8542 31.9375 28.0625C33.1458 29.2708 33.75 30.75 33.75 32.5C33.75 34.25 33.1458 35.7292 31.9375 36.9375C30.7292 38.1458 29.25 38.75 27.5 38.75Z" fill="#747474"/>
</g>
</svg>
