<svg width="31" height="31" viewBox="0 0 31 31" fill="none" xmlns="http://www.w3.org/2000/svg">
<path d="M10.332 24.4502C11.9029 25.3572 13.6848 25.8346 15.4987 25.8346C17.3126 25.8346 19.0945 25.3572 20.6654 24.4502C22.2362 23.5433 23.5407 22.2388 24.4476 20.668C25.3546 19.0971 25.832 17.3152 25.832 15.5013C25.832 13.6874 25.3546 11.9055 24.4476 10.3346C23.5407 8.76377 22.2362 7.45931 20.6654 6.55237C19.0945 5.64543 17.3126 5.16797 15.4987 5.16797C13.6848 5.16797 11.9029 5.64543 10.332 6.55237" stroke="#33363F" stroke-width="2"/>
<path d="M2.58203 15.5013L1.80116 14.8766L1.30141 15.5013L1.80116 16.126L2.58203 15.5013ZM14.207 16.5013C14.7593 16.5013 15.207 16.0536 15.207 15.5013C15.207 14.949 14.7593 14.5013 14.207 14.5013V16.5013ZM6.96783 8.41827L1.80116 14.8766L3.3629 16.126L8.52957 9.66766L6.96783 8.41827ZM1.80116 16.126L6.96783 22.5843L8.52957 21.3349L3.3629 14.8766L1.80116 16.126ZM2.58203 16.5013H14.207V14.5013H2.58203V16.5013Z" fill="#33363F"/>
</svg>